C:\Users\Nicos\Documents\OpenSimProjects\SprintingProject\Study1\PredictiveResults\IC_pred_Sprinting_optimum_27-October-2023__18-13-56_p02_maxVel_01___HTD_Plus_2_GRF.mot
version=1
nRows=4
nColumns=127
inDegrees=yes
endheader
time	ground_force_vx	ground_force_vy	ground_force_vz	ground_force_px	ground_force_py	ground_force_pz	ground_torque_x	ground_torque_y	ground_torque_z	1_ground_force_vx	1_ground_force_vy	1_ground_force_vz	1_ground_force_px	1_ground_force_py	1_ground_force_pz	1_ground_torque_x	1_ground_torque_y	1_ground_torque_z	2_ground_force_vx	2_ground_force_vy	2_ground_force_vz	2_ground_force_px	2_ground_force_py	2_ground_force_pz	2_ground_torque_x	2_ground_torque_y	2_ground_torque_z	3_ground_force_vx	3_ground_force_vy	3_ground_force_vz	3_ground_force_px	3_ground_force_py	3_ground_force_pz	3_ground_torque_x	3_ground_torque_y	3_ground_torque_z	4_ground_force_vx	4_ground_force_vy	4_ground_force_vz	4_ground_force_px	4_ground_force_py	4_ground_force_pz	4_ground_torque_x	4_ground_torque_y	4_ground_torque_z	5_ground_force_vx	5_ground_force_vy	5_ground_force_vz	5_ground_force_px	5_ground_force_py	5_ground_force_pz	5_ground_torque_x	5_ground_torque_y	5_ground_torque_z	6_ground_force_vx	6_ground_force_vy	6_ground_force_vz	6_ground_force_px	6_ground_force_py	6_ground_force_pz	6_ground_torque_x	6_ground_torque_y	6_ground_torque_z	7_ground_force_vx	7_ground_force_vy	7_ground_force_vz	7_ground_force_px	7_ground_force_py	7_ground_force_pz	7_ground_torque_x	7_ground_torque_y	7_ground_torque_z	8_ground_force_vx	8_ground_force_vy	8_ground_force_vz	8_ground_force_px	8_ground_force_py	8_ground_force_pz	8_ground_torque_x	8_ground_torque_y	8_ground_torque_z	9_ground_force_vx	9_ground_force_vy	9_ground_force_vz	9_ground_force_px	9_ground_force_py	9_ground_force_pz	9_ground_torque_x	9_ground_torque_y	9_ground_torque_z	10_ground_force_vx	10_ground_force_vy	10_ground_force_vz	10_ground_force_px	10_ground_force_py	10_ground_force_pz	10_ground_torque_x	10_ground_torque_y	10_ground_torque_z	11_ground_force_vx	11_ground_force_vy	11_ground_force_vz	11_ground_force_px	11_ground_force_py	11_ground_force_pz	11_ground_torque_x	11_ground_torque_y	11_ground_torque_z	12_ground_force_vx	12_ground_force_vy	12_ground_force_vz	12_ground_force_px	12_ground_force_py	12_ground_force_pz	12_ground_torque_x	12_ground_torque_y	12_ground_torque_z	13_ground_force_vx	13_ground_force_vy	13_ground_force_vz	13_ground_force_px	13_ground_force_py	13_ground_force_pz	13_ground_torque_x	13_ground_torque_y	13_ground_torque_z
0.213237	-0.000000	0.000000	-0.000000	1.085598	0.216745	0.398539	0.000000	0.000000	0.000000	-0.000000	0.000000	-0.000000	1.108597	0.235658	0.421065	0.000000	0.000000	0.000000	-0.000000	0.000000	-0.000000	1.125362	0.246443	0.416999	0.000000	0.000000	0.000000	-0.000000	0.000000	-0.000000	1.122594	0.245374	0.394544	0.000000	0.000000	0.000000	-0.000000	0.000000	-0.000000	1.167704	0.283614	0.450243	0.000000	0.000000	0.000000	-0.000000	0.000000	-0.000000	1.139186	0.259588	0.412792	0.000000	0.000000	0.000000	-0.000000	0.000000	-0.000000	1.194481	0.312170	0.395962	0.000000	0.000000	0.000000	-0.000000	0.000000	-0.000000	2.397188	0.072239	0.147063	0.000000	0.000000	0.000000	-0.000000	0.000000	-0.000000	2.356148	0.081195	0.125565	0.000000	0.000000	0.000000	-0.000000	0.000000	0.000000	2.322444	0.081784	0.133096	0.000000	0.000000	0.000000	-0.000000	0.000000	0.000000	2.323252	0.076330	0.153016	0.000000	0.000000	0.000000	-0.000000	0.000000	0.000000	2.243089	0.100082	0.105018	0.000000	0.000000	0.000000	-0.000000	0.000000	0.000000	2.293286	0.084596	0.137358	0.000000	0.000000	0.000000	-0.000000	0.000000	0.000000	2.176652	0.095842	0.154407	0.000000	0.000000	0.000000
0.214720	-0.000000	0.000000	-0.000000	1.106020	0.219558	0.399247	0.000000	0.000000	0.000000	-0.000000	0.000000	-0.000000	1.129419	0.238389	0.421636	0.000000	0.000000	0.000000	-0.000000	0.000000	-0.000000	1.146374	0.248919	0.417778	0.000000	0.000000	0.000000	-0.000000	0.000000	-0.000000	1.143518	0.247840	0.395335	0.000000	0.000000	0.000000	-0.000000	0.000000	-0.000000	1.189057	0.286048	0.450775	0.000000	0.000000	0.000000	-0.000000	0.000000	-0.000000	1.160260	0.262042	0.413487	0.000000	0.000000	0.000000	-0.000000	0.000000	-0.000000	1.215803	0.314531	0.396325	0.000000	0.000000	0.000000	-0.000000	0.000000	-0.000000	2.415549	0.070820	0.147255	0.000000	0.000000	0.000000	-0.000000	0.000000	-0.000000	2.374542	0.079850	0.125819	0.000000	0.000000	0.000000	-0.000000	0.000000	0.000000	2.341046	0.080515	0.133243	0.000000	0.000000	0.000000	-0.000000	0.000000	0.000000	2.341815	0.075004	0.153103	0.000000	0.000000	0.000000	-0.000000	0.000000	0.000000	2.261695	0.098799	0.105115	0.000000	0.000000	0.000000	-0.000000	0.000000	0.000000	2.311860	0.083279	0.137441	0.000000	0.000000	0.000000	-0.000000	0.000000	0.000000	2.195118	0.094337	0.154236	0.000000	0.000000	0.000000
0.215367	-0.000000	0.000000	-0.000000	1.115010	0.220757	0.399574	0.000000	0.000000	0.000000	-0.000000	0.000000	-0.000000	1.138578	0.239554	0.421901	0.000000	0.000000	0.000000	-0.000000	0.000000	-0.000000	1.155609	0.249976	0.418130	0.000000	0.000000	0.000000	-0.000000	0.000000	-0.000000	1.152713	0.248893	0.395693	0.000000	0.000000	0.000000	-0.000000	0.000000	-0.000000	1.198434	0.287089	0.451013	0.000000	0.000000	0.000000	-0.000000	0.000000	-0.000000	1.169519	0.263089	0.413801	0.000000	0.000000	0.000000	-0.000000	0.000000	-0.000000	1.225156	0.315541	0.396487	0.000000	0.000000	0.000000	-0.000000	0.000000	-0.000000	2.423434	0.070181	0.147333	0.000000	0.000000	0.000000	-0.000000	0.000000	-0.000000	2.382444	0.079250	0.125929	0.000000	0.000000	0.000000	-0.000000	0.000000	0.000000	2.349052	0.079956	0.133306	0.000000	0.000000	0.000000	-0.000000	0.000000	0.000000	2.349803	0.074420	0.153138	0.000000	0.000000	0.000000	-0.000000	0.000000	0.000000	2.269707	0.098236	0.105155	0.000000	0.000000	0.000000	-0.000000	0.000000	0.000000	2.319855	0.082700	0.137475	0.000000	0.000000	0.000000	-0.000000	0.000000	0.000000	2.203066	0.093678	0.154154	0.000000	0.000000	0.000000
0.217413	-0.000000	0.000000	-0.000000	1.143695	0.224427	0.400676	0.000000	0.000000	0.000000	-0.000000	0.000000	-0.000000	1.167772	0.243123	0.422798	0.000000	0.000000	0.000000	-0.000000	0.000000	-0.000000	1.185019	0.253219	0.419285	0.000000	0.000000	0.000000	-0.000000	0.000000	-0.000000	1.181991	0.252119	0.396869	0.000000	0.000000	0.000000	-0.000000	0.000000	-0.000000	1.228267	0.290293	0.451791	0.000000	0.000000	0.000000	-0.000000	0.000000	-0.000000	1.198989	0.266305	0.414830	0.000000	0.000000	0.000000	-0.000000	0.000000	-0.000000	1.254867	0.318651	0.397010	0.000000	0.000000	0.000000	-0.000000	0.000000	-0.000000	2.447823	0.068085	0.147552	0.000000	0.000000	0.000000	-0.000000	0.000000	-0.000000	2.406892	0.077294	0.126276	0.000000	0.000000	0.000000	-0.000000	0.000000	0.000000	2.373891	0.078167	0.133499	0.000000	0.000000	0.000000	-0.000000	0.000000	0.000000	2.374581	0.072548	0.153241	0.000000	0.000000	0.000000	-0.000000	0.000000	0.000000	2.294571	0.096448	0.105280	0.000000	0.000000	0.000000	-0.000000	0.000000	0.000000	2.344658	0.080850	0.137576	0.000000	0.000000	0.000000	-0.000000	0.000000	0.000000	2.227725	0.091583	0.153882	0.000000	0.000000	0.000000
